<svg xmlns="http://www.w3.org/2000/svg" viewBox="0 0 1200 630">
  <rect width="1200" height="630" fill="#0b0a09"/>
  <defs>
    <radialGradient id="g1" cx="30%" cy="30%" r="45%">
      <stop offset="0%" stop-color="#5fb7c1" stop-opacity="0.26"/>
      <stop offset="100%" stop-color="#5fb7c1" stop-opacity="0"/>
    </radialGradient>
    <radialGradient id="g2" cx="72%" cy="30%" r="42%">
      <stop offset="0%" stop-color="#d86e78" stop-opacity="0.18"/>
      <stop offset="100%" stop-color="#d86e78" stop-opacity="0"/>
    </radialGradient>
    <radialGradient id="g3" cx="64%" cy="75%" r="35%">
      <stop offset="0%" stop-color="#d8ab3a" stop-opacity="0.14"/>
      <stop offset="100%" stop-color="#d8ab3a" stop-opacity="0"/>
    </radialGradient>
  </defs>
  <rect width="1200" height="630" fill="url(#g1)"/>
  <rect width="1200" height="630" fill="url(#g2)"/>
  <rect width="1200" height="630" fill="url(#g3)"/>
  <g stroke="#5fb7c1" stroke-opacity="0.32" stroke-width="4" fill="none">
    <path d="M720 166 C 815 128, 942 168, 1030 124"/>
    <path d="M690 262 C 790 224, 884 282, 1006 258"/>
    <path d="M734 354 C 842 390, 940 340, 1064 414"/>
    <path d="M698 440 C 800 480, 920 470, 1036 518"/>
  </g>
  <g>
    <circle cx="720" cy="166" r="18" fill="#5fb7c1"/>
    <circle cx="1030" cy="124" r="14" fill="#d8ab3a"/>
    <circle cx="690" cy="262" r="18" fill="#71b949"/>
    <circle cx="1006" cy="258" r="16" fill="#d86e78"/>
    <circle cx="734" cy="354" r="17" fill="#a78ce5"/>
    <circle cx="1064" cy="414" r="15" fill="#5b92cf"/>
    <circle cx="698" cy="440" r="18" fill="#d8ab3a"/>
    <circle cx="1036" cy="518" r="14" fill="#5fb7c1"/>
  </g>
  <text x="86" y="150" fill="#77dbe4" font-size="30" font-family="Arial, Helvetica, sans-serif" font-weight="700" letter-spacing="5">BRAINSNN</text>
  <text x="86" y="266" fill="#efe9e1" font-size="74" font-family="Arial, Helvetica, sans-serif" font-weight="700">Read the Feed</text>
  <text x="86" y="344" fill="#efe9e1" font-size="74" font-family="Arial, Helvetica, sans-serif" font-weight="700">Back</text>
  <text x="90" y="410" fill="#b7b0a7" font-size="31" font-family="Arial, Helvetica, sans-serif">See what posts, ads, and narratives try</text>
  <text x="90" y="452" fill="#b7b0a7" font-size="31" font-family="Arial, Helvetica, sans-serif">to make people feel, believe, and do</text>
  <text x="90" y="494" fill="#b7b0a7" font-size="31" font-family="Arial, Helvetica, sans-serif">before they shape attention.</text>
</svg>
