<svg xmlns="http://www.w3.org/2000/svg" width="920" height="560" viewBox="0 0 920 560">
  <rect width="100%" height="100%" fill="#ffffff" />
  <text x="80" y="28" font-size="20" font-family="Arial, sans-serif" font-weight="700">CurveRank curverank-0001: xp spectral mismatch vs truncation</text>
  <g font-family="Arial, sans-serif" fill="#111827">
    <line x1="80.00" y1="45" x2="80.00" y2="485" stroke="#e5e7eb" /><text x="80.00" y="518" font-size="12" text-anchor="middle">10</text><line x1="242.00" y1="45" x2="242.00" y2="485" stroke="#e5e7eb" /><text x="242.00" y="518" font-size="12" text-anchor="middle">18</text><line x1="404.00" y1="45" x2="404.00" y2="485" stroke="#e5e7eb" /><text x="404.00" y="518" font-size="12" text-anchor="middle">26</text><line x1="566.00" y1="45" x2="566.00" y2="485" stroke="#e5e7eb" /><text x="566.00" y="518" font-size="12" text-anchor="middle">34</text><line x1="728.00" y1="45" x2="728.00" y2="485" stroke="#e5e7eb" /><text x="728.00" y="518" font-size="12" text-anchor="middle">42</text><line x1="890.00" y1="45" x2="890.00" y2="485" stroke="#e5e7eb" /><text x="890.00" y="518" font-size="12" text-anchor="middle">50</text><line x1="80" y1="485.00" x2="890" y2="485.00" stroke="#e5e7eb" /><text x="68" y="489.00" font-size="12" text-anchor="end">0</text><line x1="80" y1="397.00" x2="890" y2="397.00" stroke="#e5e7eb" /><text x="68" y="401.00" font-size="12" text-anchor="end">8.55</text><line x1="80" y1="309.00" x2="890" y2="309.00" stroke="#e5e7eb" /><text x="68" y="313.00" font-size="12" text-anchor="end">17.1</text><line x1="80" y1="221.00" x2="890" y2="221.00" stroke="#e5e7eb" /><text x="68" y="225.00" font-size="12" text-anchor="end">25.7</text><line x1="80" y1="133.00" x2="890" y2="133.00" stroke="#e5e7eb" /><text x="68" y="137.00" font-size="12" text-anchor="end">34.2</text><line x1="80" y1="45.00" x2="890" y2="45.00" stroke="#e5e7eb" /><text x="68" y="49.00" font-size="12" text-anchor="end">42.8</text>
    <rect x="80" y="45" width="810" height="440" fill="none" stroke="#111827" stroke-width="1.2" />
    <polyline points="80.00,203.13 282.50,119.31 485.00,73.27 687.50,55.37 890.00,45.00" fill="none" stroke="#1f77b4" stroke-width="2.5" />
    <circle cx="80.00" cy="203.13" r="4" fill="#1f77b4" /><circle cx="282.50" cy="119.31" r="4" fill="#1f77b4" /><circle cx="485.00" cy="73.27" r="4" fill="#1f77b4" /><circle cx="687.50" cy="55.37" r="4" fill="#1f77b4" /><circle cx="890.00" cy="45.00" r="4" fill="#1f77b4" />
    <text x="485.00" y="548" font-size="14" text-anchor="middle">truncation basis size</text>
    <text x="22" y="265.00" font-size="14" text-anchor="middle" transform="rotate(-90 22 265.00)">spectral mismatch (RMS)</text>
  </g>
</svg>
