<svg xmlns="http://www.w3.org/2000/svg" width="1040" height="640" viewBox="0 0 1040 640">
  <rect width="100%" height="100%" fill="#ffffff" />
  <text x="80" y="30" font-size="20" font-family="Arial, sans-serif" font-weight="700">GaugeGap dynamics observables</text>
  <g font-family="Arial, sans-serif" fill="#111827">
    <line x1="80.00" y1="55" x2="80.00" y2="565" stroke="#e5e7eb" /><text x="80.00" y="598" font-size="12" text-anchor="middle">0</text><line x1="255.00" y1="55" x2="255.00" y2="565" stroke="#e5e7eb" /><text x="255.00" y="598" font-size="12" text-anchor="middle">0.25</text><line x1="430.00" y1="55" x2="430.00" y2="565" stroke="#e5e7eb" /><text x="430.00" y="598" font-size="12" text-anchor="middle">0.5</text><line x1="605.00" y1="55" x2="605.00" y2="565" stroke="#e5e7eb" /><text x="605.00" y="598" font-size="12" text-anchor="middle">0.75</text><line x1="780.00" y1="55" x2="780.00" y2="565" stroke="#e5e7eb" /><text x="780.00" y="598" font-size="12" text-anchor="middle">1</text><line x1="80" y1="565.00" x2="780" y2="565.00" stroke="#e5e7eb" /><text x="70" y="569.00" font-size="12" text-anchor="end">-1.1</text><line x1="80" y1="480.00" x2="780" y2="480.00" stroke="#e5e7eb" /><text x="70" y="484.00" font-size="12" text-anchor="end">-0.7</text><line x1="80" y1="395.00" x2="780" y2="395.00" stroke="#e5e7eb" /><text x="70" y="399.00" font-size="12" text-anchor="end">-0.35</text><line x1="80" y1="310.00" x2="780" y2="310.00" stroke="#e5e7eb" /><text x="70" y="314.00" font-size="12" text-anchor="end">0</text><line x1="80" y1="225.00" x2="780" y2="225.00" stroke="#e5e7eb" /><text x="70" y="229.00" font-size="12" text-anchor="end">0.35</text><line x1="80" y1="140.00" x2="780" y2="140.00" stroke="#e5e7eb" /><text x="70" y="144.00" font-size="12" text-anchor="end">0.7</text><line x1="80" y1="55.00" x2="780" y2="55.00" stroke="#e5e7eb" /><text x="70" y="59.00" font-size="12" text-anchor="end">1.1</text>
    <rect x="80" y="55" width="700" height="510" fill="none" stroke="#111827" stroke-width="1.2" />
    <polyline points="80.00,67.14 255.00,85.94 430.00,135.26 780.00,250.27" fill="none" stroke="#111827" stroke-width="2.2" /><circle cx="80.00" cy="67.14" r="3" fill="#111827" /><circle cx="255.00" cy="85.94" r="3" fill="#111827" /><circle cx="430.00" cy="135.26" r="3" fill="#111827" /><circle cx="780.00" cy="250.27" r="3" fill="#111827" /><polyline points="80.00,67.14 255.00,86.28 430.00,139.18 780.00,265.07" fill="none" stroke="#111827" stroke-width="2.2" /><circle cx="80.00" cy="67.14" r="3" fill="#111827" /><circle cx="255.00" cy="86.28" r="3" fill="#111827" /><circle cx="430.00" cy="139.18" r="3" fill="#111827" /><circle cx="780.00" cy="265.07" r="3" fill="#111827" /><polyline points="80.00,552.86 255.00,533.72 430.00,480.82 780.00,354.93" fill="none" stroke="#111827" stroke-width="2.2" /><circle cx="80.00" cy="552.86" r="3" fill="#111827" /><circle cx="255.00" cy="533.72" r="3" fill="#111827" /><circle cx="430.00" cy="480.82" r="3" fill="#111827" /><circle cx="780.00" cy="354.93" r="3" fill="#111827" /><polyline points="80.00,552.86 255.00,534.06 430.00,484.74 780.00,369.73" fill="none" stroke="#111827" stroke-width="2.2" /><circle cx="80.00" cy="552.86" r="3" fill="#111827" /><circle cx="255.00" cy="534.06" r="3" fill="#111827" /><circle cx="430.00" cy="484.74" r="3" fill="#111827" /><circle cx="780.00" cy="369.73" r="3" fill="#111827" /><polyline points="80.00,67.14 255.00,103.62 430.00,187.78 780.00,295.41" fill="none" stroke="#111827" stroke-width="2.2" /><circle cx="80.00" cy="67.14" r="3" fill="#111827" /><circle cx="255.00" cy="103.62" r="3" fill="#111827" /><circle cx="430.00" cy="187.78" r="3" fill="#111827" /><circle cx="780.00" cy="295.41" r="3" fill="#111827" /><polyline points="80.00,552.86 255.00,516.01 430.00,426.84 780.00,272.16" fill="none" stroke="#111827" stroke-width="2.2" /><circle cx="80.00" cy="552.86" r="3" fill="#111827" /><circle cx="255.00" cy="516.01" r="3" fill="#111827" /><circle cx="430.00" cy="426.84" r="3" fill="#111827" /><circle cx="780.00" cy="272.16" r="3" fill="#111827" /><polyline points="80.00,67.14 255.00,103.62 430.00,187.78 780.00,295.41" fill="none" stroke="#111827" stroke-width="2.2" /><circle cx="80.00" cy="67.14" r="3" fill="#111827" /><circle cx="255.00" cy="103.62" r="3" fill="#111827" /><circle cx="430.00" cy="187.78" r="3" fill="#111827" /><circle cx="780.00" cy="295.41" r="3" fill="#111827" /><polyline points="80.00,67.14 255.00,92.28 430.00,128.33 780.00,260.20" fill="none" stroke="#dc2626" stroke-width="2.2" stroke-dasharray="2 4" /><circle cx="80.00" cy="67.14" r="3" fill="#dc2626" /><circle cx="255.00" cy="92.28" r="3" fill="#dc2626" /><circle cx="430.00" cy="128.33" r="3" fill="#dc2626" /><circle cx="780.00" cy="260.20" r="3" fill="#dc2626" /><polyline points="80.00,67.14 255.00,97.50 430.00,147.78 780.00,277.75" fill="none" stroke="#dc2626" stroke-width="2.2" stroke-dasharray="2 4" /><circle cx="80.00" cy="67.14" r="3" fill="#dc2626" /><circle cx="255.00" cy="97.50" r="3" fill="#dc2626" /><circle cx="430.00" cy="147.78" r="3" fill="#dc2626" /><circle cx="780.00" cy="277.75" r="3" fill="#dc2626" /><polyline points="80.00,552.86 255.00,520.13 430.00,482.66 780.00,344.15" fill="none" stroke="#dc2626" stroke-width="2.2" stroke-dasharray="2 4" /><circle cx="80.00" cy="552.86" r="3" fill="#dc2626" /><circle cx="255.00" cy="520.13" r="3" fill="#dc2626" /><circle cx="430.00" cy="482.66" r="3" fill="#dc2626" /><circle cx="780.00" cy="344.15" r="3" fill="#dc2626" /><polyline points="80.00,551.43 255.00,523.92 430.00,468.43 780.00,362.18" fill="none" stroke="#dc2626" stroke-width="2.2" stroke-dasharray="2 4" /><circle cx="80.00" cy="551.43" r="3" fill="#dc2626" /><circle cx="255.00" cy="523.92" r="3" fill="#dc2626" /><circle cx="430.00" cy="468.43" r="3" fill="#dc2626" /><circle cx="780.00" cy="362.18" r="3" fill="#dc2626" /><polyline points="80.00,67.14 255.00,118.84 430.00,190.94 780.00,301.94" fill="none" stroke="#dc2626" stroke-width="2.2" stroke-dasharray="2 4" /><circle cx="80.00" cy="67.14" r="3" fill="#dc2626" /><circle cx="255.00" cy="118.84" r="3" fill="#dc2626" /><circle cx="430.00" cy="190.94" r="3" fill="#dc2626" /><circle cx="780.00" cy="301.94" r="3" fill="#dc2626" /><polyline points="80.00,552.86 255.00,501.16 430.00,422.89 780.00,273.00" fill="none" stroke="#dc2626" stroke-width="2.2" stroke-dasharray="2 4" /><circle cx="80.00" cy="552.86" r="3" fill="#dc2626" /><circle cx="255.00" cy="501.16" r="3" fill="#dc2626" /><circle cx="430.00" cy="422.89" r="3" fill="#dc2626" /><circle cx="780.00" cy="273.00" r="3" fill="#dc2626" /><polyline points="80.00,68.57 255.00,120.27 430.00,195.21 780.00,287.23" fill="none" stroke="#dc2626" stroke-width="2.2" stroke-dasharray="2 4" /><circle cx="80.00" cy="68.57" r="3" fill="#dc2626" /><circle cx="255.00" cy="120.27" r="3" fill="#dc2626" /><circle cx="430.00" cy="195.21" r="3" fill="#dc2626" /><circle cx="780.00" cy="287.23" r="3" fill="#dc2626" /><polyline points="80.00,67.14 255.00,88.96 430.00,134.02 780.00,260.20" fill="none" stroke="#2563eb" stroke-width="2.2" stroke-dasharray="4 3" /><circle cx="80.00" cy="67.14" r="3" fill="#2563eb" /><circle cx="255.00" cy="88.96" r="3" fill="#2563eb" /><circle cx="430.00" cy="134.02" r="3" fill="#2563eb" /><circle cx="780.00" cy="260.20" r="3" fill="#2563eb" /><polyline points="80.00,67.14 255.00,84.22 430.00,134.50 780.00,276.80" fill="none" stroke="#2563eb" stroke-width="2.2" stroke-dasharray="4 3" /><circle cx="80.00" cy="67.14" r="3" fill="#2563eb" /><circle cx="255.00" cy="84.22" r="3" fill="#2563eb" /><circle cx="430.00" cy="134.50" r="3" fill="#2563eb" /><circle cx="780.00" cy="276.80" r="3" fill="#2563eb" /><polyline points="80.00,552.86 255.00,531.04 430.00,487.40 780.00,345.57" fill="none" stroke="#2563eb" stroke-width="2.2" stroke-dasharray="4 3" /><circle cx="80.00" cy="552.86" r="3" fill="#2563eb" /><circle cx="255.00" cy="531.04" r="3" fill="#2563eb" /><circle cx="430.00" cy="487.40" r="3" fill="#2563eb" /><circle cx="780.00" cy="345.57" r="3" fill="#2563eb" /><polyline points="80.00,552.86 255.00,531.51 430.00,475.07 780.00,363.60" fill="none" stroke="#2563eb" stroke-width="2.2" stroke-dasharray="4 3" /><circle cx="80.00" cy="552.86" r="3" fill="#2563eb" /><circle cx="255.00" cy="531.51" r="3" fill="#2563eb" /><circle cx="430.00" cy="475.07" r="3" fill="#2563eb" /><circle cx="780.00" cy="363.60" r="3" fill="#2563eb" /><polyline points="80.00,67.14 255.00,106.04 430.00,185.25 780.00,301.94" fill="none" stroke="#2563eb" stroke-width="2.2" stroke-dasharray="4 3" /><circle cx="80.00" cy="67.14" r="3" fill="#2563eb" /><circle cx="255.00" cy="106.04" r="3" fill="#2563eb" /><circle cx="430.00" cy="185.25" r="3" fill="#2563eb" /><circle cx="780.00" cy="301.94" r="3" fill="#2563eb" /><polyline points="80.00,552.86 255.00,515.86 430.00,432.38 780.00,272.53" fill="none" stroke="#2563eb" stroke-width="2.2" stroke-dasharray="4 3" /><circle cx="80.00" cy="552.86" r="3" fill="#2563eb" /><circle cx="255.00" cy="515.86" r="3" fill="#2563eb" /><circle cx="430.00" cy="432.38" r="3" fill="#2563eb" /><circle cx="780.00" cy="272.53" r="3" fill="#2563eb" /><polyline points="80.00,67.14 255.00,107.46 430.00,190.47 780.00,286.28" fill="none" stroke="#2563eb" stroke-width="2.2" stroke-dasharray="4 3" /><circle cx="80.00" cy="67.14" r="3" fill="#2563eb" /><circle cx="255.00" cy="107.46" r="3" fill="#2563eb" /><circle cx="430.00" cy="190.47" r="3" fill="#2563eb" /><circle cx="780.00" cy="286.28" r="3" fill="#2563eb" />
    <line x1="805" y1="55" x2="830" y2="55" stroke="#111827" stroke-width="2.2" /><text x="838" y="59" font-size="11">local_statevector z_expectation site0</text><line x1="805" y1="73" x2="830" y2="73" stroke="#111827" stroke-width="2.2" /><text x="838" y="77" font-size="11">local_statevector z_expectation site1</text><line x1="805" y1="91" x2="830" y2="91" stroke="#111827" stroke-width="2.2" /><text x="838" y="95" font-size="11">local_statevector z_expectation site2</text><line x1="805" y1="109" x2="830" y2="109" stroke="#111827" stroke-width="2.2" /><text x="838" y="113" font-size="11">local_statevector z_expectation site3</text><line x1="805" y1="127" x2="830" y2="127" stroke="#111827" stroke-width="2.2" /><text x="838" y="131" font-size="11">local_statevector zz_correlator bond0</text><line x1="805" y1="145" x2="830" y2="145" stroke="#111827" stroke-width="2.2" /><text x="838" y="149" font-size="11">local_statevector zz_correlator bond1</text><line x1="805" y1="163" x2="830" y2="163" stroke="#111827" stroke-width="2.2" /><text x="838" y="167" font-size="11">local_statevector zz_correlator bond2</text><line x1="805" y1="181" x2="830" y2="181" stroke="#dc2626" stroke-width="2.2" stroke-dasharray="2 4" /><text x="838" y="185" font-size="11">shot_sampler:depolarizing z_expectation site0</text><line x1="805" y1="199" x2="830" y2="199" stroke="#dc2626" stroke-width="2.2" stroke-dasharray="2 4" /><text x="838" y="203" font-size="11">shot_sampler:depolarizing z_expectation site1</text><line x1="805" y1="217" x2="830" y2="217" stroke="#dc2626" stroke-width="2.2" stroke-dasharray="2 4" /><text x="838" y="221" font-size="11">shot_sampler:depolarizing z_expectation site2</text><line x1="805" y1="235" x2="830" y2="235" stroke="#dc2626" stroke-width="2.2" stroke-dasharray="2 4" /><text x="838" y="239" font-size="11">shot_sampler:depolarizing z_expectation site3</text><line x1="805" y1="253" x2="830" y2="253" stroke="#dc2626" stroke-width="2.2" stroke-dasharray="2 4" /><text x="838" y="257" font-size="11">shot_sampler:depolarizing zz_correlator bond0</text><line x1="805" y1="271" x2="830" y2="271" stroke="#dc2626" stroke-width="2.2" stroke-dasharray="2 4" /><text x="838" y="275" font-size="11">shot_sampler:depolarizing zz_correlator bond1</text><line x1="805" y1="289" x2="830" y2="289" stroke="#dc2626" stroke-width="2.2" stroke-dasharray="2 4" /><text x="838" y="293" font-size="11">shot_sampler:depolarizing zz_correlator bond2</text><line x1="805" y1="307" x2="830" y2="307" stroke="#2563eb" stroke-width="2.2" stroke-dasharray="4 3" /><text x="838" y="311" font-size="11">shot_sampler:none z_expectation site0</text><line x1="805" y1="325" x2="830" y2="325" stroke="#2563eb" stroke-width="2.2" stroke-dasharray="4 3" /><text x="838" y="329" font-size="11">shot_sampler:none z_expectation site1</text><line x1="805" y1="343" x2="830" y2="343" stroke="#2563eb" stroke-width="2.2" stroke-dasharray="4 3" /><text x="838" y="347" font-size="11">shot_sampler:none z_expectation site2</text><line x1="805" y1="361" x2="830" y2="361" stroke="#2563eb" stroke-width="2.2" stroke-dasharray="4 3" /><text x="838" y="365" font-size="11">shot_sampler:none z_expectation site3</text><line x1="805" y1="379" x2="830" y2="379" stroke="#2563eb" stroke-width="2.2" stroke-dasharray="4 3" /><text x="838" y="383" font-size="11">shot_sampler:none zz_correlator bond0</text><line x1="805" y1="397" x2="830" y2="397" stroke="#2563eb" stroke-width="2.2" stroke-dasharray="4 3" /><text x="838" y="401" font-size="11">shot_sampler:none zz_correlator bond1</text><line x1="805" y1="415" x2="830" y2="415" stroke="#2563eb" stroke-width="2.2" stroke-dasharray="4 3" /><text x="838" y="419" font-size="11">shot_sampler:none zz_correlator bond2</text>
    <text x="430.00" y="628" font-size="14" text-anchor="middle">time</text>
    <text x="22" y="310.00" font-size="14" text-anchor="middle" transform="rotate(-90 22 310.00)">observable value</text>
  </g>
</svg>
