<svg xmlns="http://www.w3.org/2000/svg" width="920" height="560" viewBox="0 0 920 560">
  <rect width="100%" height="100%" fill="#ffffff" />
  <text x="80" y="28" font-size="20" font-family="Arial, sans-serif" font-weight="700">FlowGap flowgap-0001: viscous Burgers kinetic energy</text>
  <g font-family="Arial, sans-serif" fill="#111827">
    <line x1="80.00" y1="45" x2="80.00" y2="485" stroke="#e5e7eb" /><text x="80.00" y="518" font-size="12" text-anchor="middle">0.001</text><line x1="242.00" y1="45" x2="242.00" y2="485" stroke="#e5e7eb" /><text x="242.00" y="518" font-size="12" text-anchor="middle">0.0208</text><line x1="404.00" y1="45" x2="404.00" y2="485" stroke="#e5e7eb" /><text x="404.00" y="518" font-size="12" text-anchor="middle">0.0406</text><line x1="566.00" y1="45" x2="566.00" y2="485" stroke="#e5e7eb" /><text x="566.00" y="518" font-size="12" text-anchor="middle">0.0604</text><line x1="728.00" y1="45" x2="728.00" y2="485" stroke="#e5e7eb" /><text x="728.00" y="518" font-size="12" text-anchor="middle">0.0802</text><line x1="890.00" y1="45" x2="890.00" y2="485" stroke="#e5e7eb" /><text x="890.00" y="518" font-size="12" text-anchor="middle">0.1</text><line x1="80" y1="485.00" x2="890" y2="485.00" stroke="#e5e7eb" /><text x="68" y="489.00" font-size="12" text-anchor="end">0</text><line x1="80" y1="397.00" x2="890" y2="397.00" stroke="#e5e7eb" /><text x="68" y="401.00" font-size="12" text-anchor="end">0.05</text><line x1="80" y1="309.00" x2="890" y2="309.00" stroke="#e5e7eb" /><text x="68" y="313.00" font-size="12" text-anchor="end">0.0999</text><line x1="80" y1="221.00" x2="890" y2="221.00" stroke="#e5e7eb" /><text x="68" y="225.00" font-size="12" text-anchor="end">0.15</text><line x1="80" y1="133.00" x2="890" y2="133.00" stroke="#e5e7eb" /><text x="68" y="137.00" font-size="12" text-anchor="end">0.2</text><line x1="80" y1="45.00" x2="890" y2="45.00" stroke="#e5e7eb" /><text x="68" y="49.00" font-size="12" text-anchor="end">0.25</text>
    <rect x="80" y="45" width="810" height="440" fill="none" stroke="#111827" stroke-width="1.2" />
    <polyline points="80.00,45.00 282.50,53.42 485.00,61.67 687.50,69.77 890.00,77.71" fill="none" stroke="#1f77b4" stroke-width="2.5" /><circle cx="80.00" cy="45.00" r="3.5" fill="#1f77b4" /><circle cx="282.50" cy="53.42" r="3.5" fill="#1f77b4" /><circle cx="485.00" cy="61.67" r="3.5" fill="#1f77b4" /><circle cx="687.50" cy="69.77" r="3.5" fill="#1f77b4" /><circle cx="890.00" cy="77.71" r="3.5" fill="#1f77b4" /><polyline points="80.00,45.05 282.50,53.54 485.00,61.88 687.50,70.05 890.00,78.06" fill="none" stroke="#d62728" stroke-width="2.5" /><circle cx="80.00" cy="45.05" r="3.5" fill="#d62728" /><circle cx="282.50" cy="53.54" r="3.5" fill="#d62728" /><circle cx="485.00" cy="61.88" r="3.5" fill="#d62728" /><circle cx="687.50" cy="70.05" r="3.5" fill="#d62728" /><circle cx="890.00" cy="78.06" r="3.5" fill="#d62728" /><polyline points="80.00,45.06 282.50,53.58 485.00,61.93 687.50,70.12 890.00,78.15" fill="none" stroke="#2ca02c" stroke-width="2.5" /><circle cx="80.00" cy="45.06" r="3.5" fill="#2ca02c" /><circle cx="282.50" cy="53.58" r="3.5" fill="#2ca02c" /><circle cx="485.00" cy="61.93" r="3.5" fill="#2ca02c" /><circle cx="687.50" cy="70.12" r="3.5" fill="#2ca02c" /><circle cx="890.00" cy="78.15" r="3.5" fill="#2ca02c" />
    <line x1="750" y1="45" x2="780" y2="45" stroke="#1f77b4" stroke-width="3" /><text x="788" y="50" font-size="14">nx=16</text><line x1="750" y1="67" x2="780" y2="67" stroke="#d62728" stroke-width="3" /><text x="788" y="72" font-size="14">nx=32</text><line x1="750" y1="89" x2="780" y2="89" stroke="#2ca02c" stroke-width="3" /><text x="788" y="94" font-size="14">nx=64</text>
    <text x="485.00" y="548" font-size="14" text-anchor="middle">viscosity nu</text>
    <text x="22" y="265.00" font-size="14" text-anchor="middle" transform="rotate(-90 22 265.00)">kinetic energy (final)</text>
  </g>
</svg>
