<svg xmlns="http://www.w3.org/2000/svg" width="920" height="560" viewBox="0 0 920 560">
  <rect width="100%" height="100%" fill="#ffffff" />
  <text x="80" y="28" font-size="20" font-family="Arial, sans-serif" font-weight="700">GaugeGap gaugegap-u1-0001: U(1) mass gap vs magnetic coupling</text>
  <g font-family="Arial, sans-serif" fill="#111827">
    <line x1="80.00" y1="45" x2="80.00" y2="485" stroke="#e5e7eb" /><text x="80.00" y="518" font-size="12" text-anchor="middle">0.1</text><line x1="242.00" y1="45" x2="242.00" y2="485" stroke="#e5e7eb" /><text x="242.00" y="518" font-size="12" text-anchor="middle">0.68</text><line x1="404.00" y1="45" x2="404.00" y2="485" stroke="#e5e7eb" /><text x="404.00" y="518" font-size="12" text-anchor="middle">1.3</text><line x1="566.00" y1="45" x2="566.00" y2="485" stroke="#e5e7eb" /><text x="566.00" y="518" font-size="12" text-anchor="middle">1.8</text><line x1="728.00" y1="45" x2="728.00" y2="485" stroke="#e5e7eb" /><text x="728.00" y="518" font-size="12" text-anchor="middle">2.4</text><line x1="890.00" y1="45" x2="890.00" y2="485" stroke="#e5e7eb" /><text x="890.00" y="518" font-size="12" text-anchor="middle">3</text><line x1="80" y1="485.00" x2="890" y2="485.00" stroke="#e5e7eb" /><text x="68" y="489.00" font-size="12" text-anchor="end">0</text><line x1="80" y1="397.00" x2="890" y2="397.00" stroke="#e5e7eb" /><text x="68" y="401.00" font-size="12" text-anchor="end">0.0714</text><line x1="80" y1="309.00" x2="890" y2="309.00" stroke="#e5e7eb" /><text x="68" y="313.00" font-size="12" text-anchor="end">0.143</text><line x1="80" y1="221.00" x2="890" y2="221.00" stroke="#e5e7eb" /><text x="68" y="225.00" font-size="12" text-anchor="end">0.214</text><line x1="80" y1="133.00" x2="890" y2="133.00" stroke="#e5e7eb" /><text x="68" y="137.00" font-size="12" text-anchor="end">0.286</text><line x1="80" y1="45.00" x2="890" y2="45.00" stroke="#e5e7eb" /><text x="68" y="49.00" font-size="12" text-anchor="end">0.357</text>
    <rect x="80" y="45" width="810" height="440" fill="none" stroke="#111827" stroke-width="1.2" />
    <polyline points="80.00,127.62 170.00,390.90 260.00,434.31 350.00,450.53 440.00,458.93 530.00,464.04 620.00,467.49 710.00,469.96 800.00,471.82 890.00,473.27" fill="none" stroke="#1f77b4" stroke-width="2.5" /><circle cx="80.00" cy="127.62" r="3.5" fill="#1f77b4" /><circle cx="170.00" cy="390.90" r="3.5" fill="#1f77b4" /><circle cx="260.00" cy="434.31" r="3.5" fill="#1f77b4" /><circle cx="350.00" cy="450.53" r="3.5" fill="#1f77b4" /><circle cx="440.00" cy="458.93" r="3.5" fill="#1f77b4" /><circle cx="530.00" cy="464.04" r="3.5" fill="#1f77b4" /><circle cx="620.00" cy="467.49" r="3.5" fill="#1f77b4" /><circle cx="710.00" cy="469.96" r="3.5" fill="#1f77b4" /><circle cx="800.00" cy="471.82" r="3.5" fill="#1f77b4" /><circle cx="890.00" cy="473.27" r="3.5" fill="#1f77b4" /><polyline points="80.00,45.00 170.00,174.44 260.00,207.82 350.00,239.34 440.00,268.49 530.00,293.57 620.00,314.52 710.00,331.92 800.00,346.43 890.00,358.63" fill="none" stroke="#d62728" stroke-width="2.5" /><circle cx="80.00" cy="45.00" r="3.5" fill="#d62728" /><circle cx="170.00" cy="174.44" r="3.5" fill="#d62728" /><circle cx="260.00" cy="207.82" r="3.5" fill="#d62728" /><circle cx="350.00" cy="239.34" r="3.5" fill="#d62728" /><circle cx="440.00" cy="268.49" r="3.5" fill="#d62728" /><circle cx="530.00" cy="293.57" r="3.5" fill="#d62728" /><circle cx="620.00" cy="314.52" r="3.5" fill="#d62728" /><circle cx="710.00" cy="331.92" r="3.5" fill="#d62728" /><circle cx="800.00" cy="346.43" r="3.5" fill="#d62728" /><circle cx="890.00" cy="358.63" r="3.5" fill="#d62728" /><polyline points="80.00,169.67 170.00,463.83 260.00,478.91 350.00,482.18 440.00,483.38 530.00,483.95 620.00,484.26 710.00,484.46 800.00,484.58 890.00,484.67" fill="none" stroke="#2ca02c" stroke-width="2.5" /><circle cx="80.00" cy="169.67" r="3.5" fill="#2ca02c" /><circle cx="170.00" cy="463.83" r="3.5" fill="#2ca02c" /><circle cx="260.00" cy="478.91" r="3.5" fill="#2ca02c" /><circle cx="350.00" cy="482.18" r="3.5" fill="#2ca02c" /><circle cx="440.00" cy="483.38" r="3.5" fill="#2ca02c" /><circle cx="530.00" cy="483.95" r="3.5" fill="#2ca02c" /><circle cx="620.00" cy="484.26" r="3.5" fill="#2ca02c" /><circle cx="710.00" cy="484.46" r="3.5" fill="#2ca02c" /><circle cx="800.00" cy="484.58" r="3.5" fill="#2ca02c" /><circle cx="890.00" cy="484.67" r="3.5" fill="#2ca02c" /><polyline points="80.00,84.18 170.00,277.68 260.00,319.16 350.00,359.74 440.00,392.68 530.00,416.24 620.00,432.60 710.00,444.07 800.00,452.30 890.00,458.35" fill="none" stroke="#9467bd" stroke-width="2.5" /><circle cx="80.00" cy="84.18" r="3.5" fill="#9467bd" /><circle cx="170.00" cy="277.68" r="3.5" fill="#9467bd" /><circle cx="260.00" cy="319.16" r="3.5" fill="#9467bd" /><circle cx="350.00" cy="359.74" r="3.5" fill="#9467bd" /><circle cx="440.00" cy="392.68" r="3.5" fill="#9467bd" /><circle cx="530.00" cy="416.24" r="3.5" fill="#9467bd" /><circle cx="620.00" cy="432.60" r="3.5" fill="#9467bd" /><circle cx="710.00" cy="444.07" r="3.5" fill="#9467bd" /><circle cx="800.00" cy="452.30" r="3.5" fill="#9467bd" /><circle cx="890.00" cy="458.35" r="3.5" fill="#9467bd" />
    <line x1="750" y1="45" x2="780" y2="45" stroke="#1f77b4" stroke-width="3" /><text x="788" y="50" font-size="14">L=2,T=1</text><line x1="750" y1="67" x2="780" y2="67" stroke="#d62728" stroke-width="3" /><text x="788" y="72" font-size="14">L=2,T=2</text><line x1="750" y1="89" x2="780" y2="89" stroke="#2ca02c" stroke-width="3" /><text x="788" y="94" font-size="14">L=3,T=1</text><line x1="750" y1="111" x2="780" y2="111" stroke="#9467bd" stroke-width="3" /><text x="788" y="116" font-size="14">L=3,T=2</text>
    <text x="485.00" y="548" font-size="14" text-anchor="middle">magnetic coupling g_mag</text>
    <text x="22" y="265.00" font-size="14" text-anchor="middle" transform="rotate(-90 22 265.00)">mass gap E1 - E0</text>
  </g>
</svg>
