<svg xmlns="http://www.w3.org/2000/svg" width="920" height="560" viewBox="0 0 920 560">
  <rect width="100%" height="100%" fill="#ffffff" />
  <text x="80" y="28" font-size="20" font-family="Arial, sans-serif" font-weight="700">GaugeGap gaugegap-0002: finite Z2 plaquette gap sweep</text>
  <g font-family="Arial, sans-serif" fill="#111827">
    <line x1="80.00" y1="45" x2="80.00" y2="485" stroke="#e5e7eb" /><text x="80.00" y="518" font-size="12" text-anchor="middle">0.1</text><line x1="242.00" y1="45" x2="242.00" y2="485" stroke="#e5e7eb" /><text x="242.00" y="518" font-size="12" text-anchor="middle">0.28</text><line x1="404.00" y1="45" x2="404.00" y2="485" stroke="#e5e7eb" /><text x="404.00" y="518" font-size="12" text-anchor="middle">0.46</text><line x1="566.00" y1="45" x2="566.00" y2="485" stroke="#e5e7eb" /><text x="566.00" y="518" font-size="12" text-anchor="middle">0.64</text><line x1="728.00" y1="45" x2="728.00" y2="485" stroke="#e5e7eb" /><text x="728.00" y="518" font-size="12" text-anchor="middle">0.82</text><line x1="890.00" y1="45" x2="890.00" y2="485" stroke="#e5e7eb" /><text x="890.00" y="518" font-size="12" text-anchor="middle">1</text><line x1="80" y1="485.00" x2="890" y2="485.00" stroke="#e5e7eb" /><text x="68" y="489.00" font-size="12" text-anchor="end">0</text><line x1="80" y1="397.00" x2="890" y2="397.00" stroke="#e5e7eb" /><text x="68" y="401.00" font-size="12" text-anchor="end">0.38</text><line x1="80" y1="309.00" x2="890" y2="309.00" stroke="#e5e7eb" /><text x="68" y="313.00" font-size="12" text-anchor="end">0.75</text><line x1="80" y1="221.00" x2="890" y2="221.00" stroke="#e5e7eb" /><text x="68" y="225.00" font-size="12" text-anchor="end">1.1</text><line x1="80" y1="133.00" x2="890" y2="133.00" stroke="#e5e7eb" /><text x="68" y="137.00" font-size="12" text-anchor="end">1.5</text><line x1="80" y1="45.00" x2="890" y2="45.00" stroke="#e5e7eb" /><text x="68" y="49.00" font-size="12" text-anchor="end">1.9</text>
    <rect x="80" y="45" width="810" height="440" fill="none" stroke="#111827" stroke-width="1.2" />
    <polyline points="80.00,471.66 350.00,343.66 620.00,192.90 890.00,45.00" fill="none" stroke="#1f77b4" stroke-width="2.5" /><circle cx="80.00" cy="471.66" r="3.5" fill="#1f77b4" /><circle cx="350.00" cy="343.66" r="3.5" fill="#1f77b4" /><circle cx="620.00" cy="192.90" r="3.5" fill="#1f77b4" /><circle cx="890.00" cy="45.00" r="3.5" fill="#1f77b4" /><polyline points="80.00,481.15 350.00,376.64 620.00,222.65 890.00,69.32" fill="none" stroke="#d62728" stroke-width="2.5" /><circle cx="80.00" cy="481.15" r="3.5" fill="#d62728" /><circle cx="350.00" cy="376.64" r="3.5" fill="#d62728" /><circle cx="620.00" cy="222.65" r="3.5" fill="#d62728" /><circle cx="890.00" cy="69.32" r="3.5" fill="#d62728" />
    <line x1="725" y1="45" x2="755" y2="45" stroke="#1f77b4" stroke-width="3" /><text x="763" y="50" font-size="14">plaquettes=1</text><line x1="725" y1="67" x2="755" y2="67" stroke="#d62728" stroke-width="3" /><text x="763" y="72" font-size="14">plaquettes=2</text>
    <text x="485.00" y="548" font-size="14" text-anchor="middle">transverse field h</text>
    <text x="22" y="265.00" font-size="14" text-anchor="middle" transform="rotate(-90 22 265.00)">mass gap E1 - E0</text>
  </g>
</svg>
