<svg xmlns="http://www.w3.org/2000/svg" width="920" height="560" viewBox="0 0 920 560">
  <rect width="100%" height="100%" fill="#ffffff" />
  <text x="80" y="28" font-size="20" font-family="Arial, sans-serif" font-weight="700">GaugeGap gaugegap-0001: Z2 dual-chain mass gap sweep</text>
  <g font-family="Arial, sans-serif" fill="#111827">
    <line x1="80.00" y1="45" x2="80.00" y2="485" stroke="#e5e7eb" /><text x="80.00" y="518" font-size="12" text-anchor="middle">0.2</text><line x1="242.00" y1="45" x2="242.00" y2="485" stroke="#e5e7eb" /><text x="242.00" y="518" font-size="12" text-anchor="middle">0.56</text><line x1="404.00" y1="45" x2="404.00" y2="485" stroke="#e5e7eb" /><text x="404.00" y="518" font-size="12" text-anchor="middle">0.92</text><line x1="566.00" y1="45" x2="566.00" y2="485" stroke="#e5e7eb" /><text x="566.00" y="518" font-size="12" text-anchor="middle">1.3</text><line x1="728.00" y1="45" x2="728.00" y2="485" stroke="#e5e7eb" /><text x="728.00" y="518" font-size="12" text-anchor="middle">1.6</text><line x1="890.00" y1="45" x2="890.00" y2="485" stroke="#e5e7eb" /><text x="890.00" y="518" font-size="12" text-anchor="middle">2</text><line x1="80" y1="485.00" x2="890" y2="485.00" stroke="#e5e7eb" /><text x="68" y="489.00" font-size="12" text-anchor="end">0</text><line x1="80" y1="397.00" x2="890" y2="397.00" stroke="#e5e7eb" /><text x="68" y="401.00" font-size="12" text-anchor="end">0.5</text><line x1="80" y1="309.00" x2="890" y2="309.00" stroke="#e5e7eb" /><text x="68" y="313.00" font-size="12" text-anchor="end">1</text><line x1="80" y1="221.00" x2="890" y2="221.00" stroke="#e5e7eb" /><text x="68" y="225.00" font-size="12" text-anchor="end">1.5</text><line x1="80" y1="133.00" x2="890" y2="133.00" stroke="#e5e7eb" /><text x="68" y="137.00" font-size="12" text-anchor="end">2</text><line x1="80" y1="45.00" x2="890" y2="45.00" stroke="#e5e7eb" /><text x="68" y="49.00" font-size="12" text-anchor="end">2.5</text>
    <rect x="80" y="45" width="810" height="440" fill="none" stroke="#111827" stroke-width="1.2" />
    <polyline points="80.00,484.46 170.00,477.45 260.00,454.73 350.00,414.91 440.00,363.28 530.00,304.86 620.00,242.58 710.00,178.00 800.00,111.98 890.00,45.00" fill="none" stroke="#1f77b4" stroke-width="2.5" /><circle cx="80.00" cy="484.46" r="3.5" fill="#1f77b4" /><circle cx="170.00" cy="477.45" r="3.5" fill="#1f77b4" /><circle cx="260.00" cy="454.73" r="3.5" fill="#1f77b4" /><circle cx="350.00" cy="414.91" r="3.5" fill="#1f77b4" /><circle cx="440.00" cy="363.28" r="3.5" fill="#1f77b4" /><circle cx="530.00" cy="304.86" r="3.5" fill="#1f77b4" /><circle cx="620.00" cy="242.58" r="3.5" fill="#1f77b4" /><circle cx="710.00" cy="178.00" r="3.5" fill="#1f77b4" /><circle cx="800.00" cy="111.98" r="3.5" fill="#1f77b4" /><circle cx="890.00" cy="45.00" r="3.5" fill="#1f77b4" /><polyline points="80.00,484.98 170.00,483.79 260.00,474.45 350.00,446.56 440.00,400.51 530.00,343.85 620.00,281.83 710.00,217.00 800.00,150.56 890.00,83.14" fill="none" stroke="#d62728" stroke-width="2.5" /><circle cx="80.00" cy="484.98" r="3.5" fill="#d62728" /><circle cx="170.00" cy="483.79" r="3.5" fill="#d62728" /><circle cx="260.00" cy="474.45" r="3.5" fill="#d62728" /><circle cx="350.00" cy="446.56" r="3.5" fill="#d62728" /><circle cx="440.00" cy="400.51" r="3.5" fill="#d62728" /><circle cx="530.00" cy="343.85" r="3.5" fill="#d62728" /><circle cx="620.00" cy="281.83" r="3.5" fill="#d62728" /><circle cx="710.00" cy="217.00" r="3.5" fill="#d62728" /><circle cx="800.00" cy="150.56" r="3.5" fill="#d62728" /><circle cx="890.00" cy="83.14" r="3.5" fill="#d62728" /><polyline points="80.00,485.00 170.00,484.81 260.00,481.23 350.00,462.19 440.00,420.33 530.00,364.21 620.00,301.69 710.00,236.19 800.00,169.14 890.00,101.20" fill="none" stroke="#2ca02c" stroke-width="2.5" /><circle cx="80.00" cy="485.00" r="3.5" fill="#2ca02c" /><circle cx="170.00" cy="484.81" r="3.5" fill="#2ca02c" /><circle cx="260.00" cy="481.23" r="3.5" fill="#2ca02c" /><circle cx="350.00" cy="462.19" r="3.5" fill="#2ca02c" /><circle cx="440.00" cy="420.33" r="3.5" fill="#2ca02c" /><circle cx="530.00" cy="364.21" r="3.5" fill="#2ca02c" /><circle cx="620.00" cy="301.69" r="3.5" fill="#2ca02c" /><circle cx="710.00" cy="236.19" r="3.5" fill="#2ca02c" /><circle cx="800.00" cy="169.14" r="3.5" fill="#2ca02c" /><circle cx="890.00" cy="101.20" r="3.5" fill="#2ca02c" /><polyline points="80.00,485.00 170.00,484.97 260.00,483.64 350.00,470.94 440.00,432.62 530.00,376.53 620.00,313.31 710.00,247.14 800.00,179.54 890.00,111.18" fill="none" stroke="#9467bd" stroke-width="2.5" /><circle cx="80.00" cy="485.00" r="3.5" fill="#9467bd" /><circle cx="170.00" cy="484.97" r="3.5" fill="#9467bd" /><circle cx="260.00" cy="483.64" r="3.5" fill="#9467bd" /><circle cx="350.00" cy="470.94" r="3.5" fill="#9467bd" /><circle cx="440.00" cy="432.62" r="3.5" fill="#9467bd" /><circle cx="530.00" cy="376.53" r="3.5" fill="#9467bd" /><circle cx="620.00" cy="313.31" r="3.5" fill="#9467bd" /><circle cx="710.00" cy="247.14" r="3.5" fill="#9467bd" /><circle cx="800.00" cy="179.54" r="3.5" fill="#9467bd" /><circle cx="890.00" cy="111.18" r="3.5" fill="#9467bd" />
    <line x1="750" y1="45" x2="780" y2="45" stroke="#1f77b4" stroke-width="3" /><text x="788" y="50" font-size="14">L=4</text><line x1="750" y1="67" x2="780" y2="67" stroke="#d62728" stroke-width="3" /><text x="788" y="72" font-size="14">L=6</text><line x1="750" y1="89" x2="780" y2="89" stroke="#2ca02c" stroke-width="3" /><text x="788" y="94" font-size="14">L=8</text><line x1="750" y1="111" x2="780" y2="111" stroke="#9467bd" stroke-width="3" /><text x="788" y="116" font-size="14">L=10</text>
    <text x="485.00" y="548" font-size="14" text-anchor="middle">transverse field h</text>
    <text x="22" y="265.00" font-size="14" text-anchor="middle" transform="rotate(-90 22 265.00)">mass gap E1 - E0</text>
  </g>
</svg>
