<svg xmlns="http://www.w3.org/2000/svg" width="1200" height="630" viewBox="0 0 1200 630" role="img" aria-labelledby="title desc">
  <title id="title">BrainSNN - Live Affective Intelligence</title>
  <desc id="desc">BrainSNN shows hidden emotional payload, attention, risk, and viral pressure as a live brain scan.</desc>
  <rect width="1200" height="630" fill="#0a0a0f"/>
  <circle cx="982" cy="118" r="210" fill="#00f5ff" opacity="0.22"/>
  <circle cx="164" cy="532" r="190" fill="#a855f7" opacity="0.18"/>
  <circle cx="850" cy="420" r="170" fill="#fb7185" opacity="0.16"/>
  <path d="M700 168 C790 74 992 106 1022 246 C1050 379 914 490 780 436 C660 388 622 250 700 168Z" fill="none" stroke="#00f5ff" stroke-width="4" opacity=".44"/>
  <path d="M740 226 C810 174 936 190 964 284 C996 392 856 438 770 366 C722 326 700 264 740 226Z" fill="none" stroke="#a855f7" stroke-width="4" opacity=".42"/>
  <circle cx="772" cy="246" r="10" fill="#00f5ff"/>
  <circle cx="886" cy="208" r="10" fill="#a855f7"/>
  <circle cx="938" cy="332" r="11" fill="#fb7185"/>
  <circle cx="810" cy="380" r="10" fill="#22d3ee"/>
  <path d="M772 246 L886 208 L938 332 L810 380 Z" fill="none" stroke="#e0f2fe" stroke-width="2" opacity=".46"/>
  <text x="88" y="152" fill="#00f5ff" font-family="Inter, Arial, sans-serif" font-size="36" font-weight="700">BrainSNN</text>
  <text x="88" y="265" fill="#f8fafc" font-family="Inter, Arial, sans-serif" font-size="76" font-weight="800">See the emotions</text>
  <text x="88" y="348" fill="#f8fafc" font-family="Inter, Arial, sans-serif" font-size="76" font-weight="800">hidden in content</text>
  <text x="92" y="418" fill="#cbd5e1" font-family="Inter, Arial, sans-serif" font-size="32" font-weight="500">Crumb LLM + spiking neural analysis for brand risk.</text>
  <rect x="88" y="492" width="342" height="72" rx="8" fill="#f8fafc"/>
  <text x="126" y="538" fill="#101820" font-family="Inter, Arial, sans-serif" font-size="29" font-weight="800">Run a live scan</text>
</svg>
