<svg xmlns="http://www.w3.org/2000/svg" viewBox="0 0 640 360" role="img" aria-labelledby="t d"><title id="t">Campaign content concept</title><desc id="d">Stylized rear GT3 framed by a camera viewfinder and shot list for planned photo and short-form video content.</desc><defs><linearGradient id="bg" x1="0" x2="1" y1="0" y2="1"><stop stop-color="#08111e"/><stop offset="1" stop-color="#1b1028"/></linearGradient><linearGradient id="g" x1="0" x2="1"><stop stop-color="#64dff0"/><stop offset="1" stop-color="#a584f8"/></linearGradient></defs><rect width="640" height="360" fill="url(#bg)"/><g opacity=".6" stroke="#dbe7fa" stroke-width="2"><path d="M52 94V48h46M542 48h46v46M52 266v46h46M542 312h46v-46"/></g><rect x="220" y="48" width="200" height="28" rx="14" fill="#0c1726" stroke="#d8e5ff" stroke-opacity=".22"/><text x="320" y="66" text-anchor="middle" fill="#c9d8ee" font-family="Arial" font-size="9" letter-spacing="1.2">CONCEPT / PHOTO + SHORT VIDEO</text><g transform="translate(105 124)"><path d="M46 86c16-32 56-48 117-54l94-8c52-4 88 10 114 42l31 38 43 11 15 25H18l10-28Z" fill="#111b29" stroke="#c5d6ed" stroke-opacity=".72" stroke-width="2"/><path d="M306 39h90l18 25h-100Z" fill="#0a1019" stroke="#a787f6" stroke-opacity=".7"/><path d="M169 36h92c38 0 65 11 86 35H126c11-15 24-26 43-35Z" fill="#080e18" stroke="#6edff0" stroke-opacity=".62"/><circle cx="121" cy="137" r="34" fill="#080d14" stroke="#536783" stroke-width="5"/><circle cx="365" cy="137" r="34" fill="#080d14" stroke="#536783" stroke-width="5"/><rect x="309" y="65" width="80" height="24" rx="5" fill="#7c5bd4" fill-opacity=".45" stroke="#a787f6"/><text x="349" y="81" text-anchor="middle" fill="#fff" font-family="Arial" font-size="9" font-weight="700">YOUR BRAND</text></g><g transform="translate(46 274)"><rect width="548" height="52" rx="12" fill="#0b1625" stroke="#7f93b2" stroke-opacity=".28"/><text x="18" y="20" fill="#aabbd3" font-family="Arial" font-size="8">SHOT LIST</text><text x="18" y="38" fill="#eef6ff" font-family="Arial" font-size="10">01 HERO STILL</text><text x="151" y="38" fill="#eef6ff" font-family="Arial" font-size="10">02 ROLLING DETAIL</text><text x="304" y="38" fill="#eef6ff" font-family="Arial" font-size="10">03 9:16 CLIP</text><rect x="455" y="13" width="74" height="26" rx="7" fill="url(#g)"/><text x="492" y="30" text-anchor="middle" fill="#09101a" font-family="Arial" font-size="9" font-weight="700">PLAN FIRST</text></g></svg>